#!OML:ASF H:\IndianDance\Patient Classification 1\Patient 1\Session 1\dancer.ASF
:FULLY-SPECIFIED
:DEGREES
1372
root 1.82632 14.2822 -1.14217 190.053 -77.753 -185.509
lowerback 7.48085 0.637179 -3.96287
upperback -7.39129 -0.0127991 -1.63416
thorax -12.2385 0.178419 0.462467
lowerneck -13.3339 -9.89917 -4.74428
upperneck 23.3817 -13.0388 -0.847717
head 9.86937 -6.71643 -1.18049
rclavicle -3.67752e-015 4.77083e-015
rhumerus -8.35621 18.9367 -28.3452
rradius 115.718
rwrist -93.493
rhand 4.39463 -4.10683
rfingers 7.12502
rthumb 29.7924 -31.7315
lclavicle -3.67752e-015 4.77083e-015
lhumerus 2.15065 -41.9584 4.03542
lradius 117.125
lwrist 45.8612
lhand -16.4743 17.3703
lfingers 7.12502
lthumb 9.7426 -1032.88
rfemur -48.9191 -23.1665 23.0823
rtibia 77.3169
rfoot -21.6831 -17.7278
rtoes 7.96487
lfemur -25.6984 31.3061 -21.4885
ltibia 58.8136
lfoot -25.9328 15.3517
ltoes -1.6702
1373
root 1.81593 14.3115 -1.20385 190.88 -77.9839 -186.489
lowerback 7.57234 0.60333 -4.25619
upperback -7.3014 -0.093518 -1.62218
thorax -12.1918 0.166538 0.654439
lowerneck -13.3169 -9.82601 -4.66462
upperneck 23.4796 -12.9141 -1.04324
head 9.87819 -6.67572 -1.24388
rclavicle -2.41523e-014 2.14687e-014
rhumerus -8.89439 17.8197 -27.826
rradius 116.436
rwrist -95.8644
rhand 3.73807 -4.09753
rfingers 7.12502
rthumb 29.1656 -31.8327
lclavicle -2.41523e-014 2.14687e-014
lhumerus 2.43208 -41.3438 3.88569
lradius 117.443
lwrist 48.1929
lhand -15.7674 17.9871
lfingers 7.12502
lthumb 10.4246 -1032.29
rfemur -48.8225 -22.9388 22.0203
rtibia 79.1967
rfoot -21.7642 -17.4544
rtoes 8.20151
lfemur -25.0844 31.1068 -21.2712
ltibia 58.1256
lfoot -25.5241 15.2056
ltoes -1.62871
1374
root 1.80281 14.3454 -1.27052 191.742 -78.3222 -187.485
lowerback 7.62773 0.533342 -4.54515
upperback -7.21954 -0.221606 -1.60949
thorax -12.1289 0.130856 0.853506
lowerneck -13.3377 -9.76824 -4.59307
upperneck 23.6459 -12.8204 -1.20764
head 9.92238 -6.6465 -1.30533
rclavicle -5.66536e-015 -3.73715e-014
rhumerus -9.40457 16.7934 -27.1918
rradius 116.842
rwrist -97.8825
rhand 3.22227 -4.04563
rfingers 7.12502
rthumb 28.6729 -31.8652
lclavicle -5.66536e-015 -3.73715e-014
lhumerus 2.7712 -40.7832 3.64742
lradius 117.754
lwrist 49.8525
lhand -14.9057 18.5315
lfingers 7.12502
lthumb 11.2557 -1031.79
rfemur -48.6489 -22.7738 20.9069
rtibia 81.0534
rfoot -21.8681 -17.1768
rtoes 8.49157
lfemur -24.4654 30.7991 -21.0265
ltibia 57.3881
lfoot -25.0756 15.057
ltoes -1.60715
1375
root 1.78695 14.3848 -1.34163 192.556 -78.7704 -188.404
lowerback 7.6479 0.426667 -4.7948
upperback -7.15095 -0.392683 -1.59293
thorax -12.0556 0.0707369 1.04247
lowerneck -13.3843 -9.72732 -4.5334
upperneck 23.8635 -12.7602 -1.33365
head 9.99431 -6.62948 -1.3607
rclavicle 2.67365e-014 -6.36111e-015
rhumerus -9.90479 15.9128 -26.4549
rradius 116.95
rwrist -99.4542
rhand 2.86465 -3.9851
rfingers 7.12502
rthumb 28.3312 -31.8619
lclavicle 2.67365e-014 -6.36111e-015
lhumerus 3.16043 -40.2852 3.33651
lradius 118.069
lwrist 50.9804
lhand -13.9372 19.0145
lfingers 7.12502
lthumb 12.1897 -1031.36
rfemur -48.3817 -22.6651 19.7782
rtibia 82.7962
rfoot -21.9606 -16.8475
rtoes 8.66711
lfemur -23.8431 30.3872 -20.7364
ltibia 56.5745
lfoot -24.5708 14.907
ltoes -1.62431
1376
root 1.76838 14.4302 -1.41665 193.22 -79.3229 -189.14
lowerback 7.63401 0.285507 -4.97612
upperback -7.09586 -0.599075 -1.56869
thorax -11.9726 -0.0122776 1.20754
lowerneck -13.4344 -9.70235 -4.49211
upperneck 24.1023 -12.7333 -1.40855
head 10.0806 -6.62379 -1.40208
rclavicle -2.28602e-014 -1.03368e-014
rhumerus -10.4081 15.2166 -25.632
rradius 116.791
rwrist -100.559
rhand 2.59188 -3.95796
rfingers 7.12502
rthumb 28.0705 -31.8778
lclavicle -2.28602e-014 -1.03368e-014
lhumerus 3.59369 -39.851 2.96575
lradius 118.401
lwrist 51.7415
lhand -12.9262 19.4273
lfingers 7.12502
lthumb 13.1643 -1031.01
rfemur -48.0064 -22.5901 18.6674
rtibia 84.3548
rfoot -22.0439 -16.4244
rtoes 8.59287
lfemur -23.2194 29.8832 -20.3799
ltibia 55.6803
lfoot -24.0108 14.7525
ltoes -1.67193
1377
root 1.74749 14.4817 -1.49514 193.648 -79.9647 -189.602
lowerback 7.58951 0.117133 -5.07609
upperback -7.05809 -0.82911 -1.53263
thorax -11.8874 -0.113215 1.34342
lowerneck -13.47 -9.69602 -4.47473
upperneck 24.3437 -12.742 -1.43337
head 10.1714 -6.63118 -1.42734
rclavicle -1.74931e-014 7.15625e-015
rhumerus -10.9312 14.7352 -24.7383
rradius 116.402
rwrist -101.249
rhand 2.35547 -3.99418
rfingers 7.12502
rthumb 27.8445 -31.9508
lclavicle -1.74931e-014 7.15625e-015
lhumerus 4.06278 -39.4802 2.5585
lradius 118.757
lwrist 52.3084
lhand -11.9603 19.759
lfingers 7.12502
lthumb 14.0952 -1030.74
rfemur -47.5232 -22.517 17.6038
rtibia 85.6706
rfoot -22.1218 -15.9059
rtoes 8.26463
lfemur -22.601 29.3055 -19.9461
ltibia 54.7076
lfoot -23.4078 14.5754
ltoes -1.69589
1378
root 1.72486 14.5385 -1.57682 193.762 -80.6772 -189.712
lowerback 7.51833 -0.0703258 -5.09676
upperback -7.0352 -1.07192 -1.48229
thorax -11.8007 -0.226411 1.45171
lowerneck -13.4829 -9.71075 -4.48811
upperneck 24.5665 -12.7888 -1.40128
head 10.2587 -6.65243 -1.43199
rclavicle 1.19271e-015 1.59028e-015
rhumerus -11.4811 14.4753 -23.7962
rradius 115.818
rwrist -101.614
rhand 2.05995 -4.07841
rfingers 7.12502
rthumb 27.5619 -32.0805
lclavicle 1.19271e-015 1.59028e-015
lhumerus 4.55906 -39.1632 2.1365
lradius 119.137
lwrist 52.7962
lhand -11.0872 20.0012
lfingers 7.12502
lthumb 14.9364 -1030.56
rfemur -46.9407 -22.4113 16.611
rtibia 86.6982
rfoot -22.1997 -15.3182
rtoes 7.75752
lfemur -21.9968 28.6783 -19.4343
ltibia 53.6636
lfoot -22.7589 14.3789
ltoes -1.71118
1379
root 1.70084 14.6 -1.66154 193.49 -81.4377 -189.4
lowerback 7.42174 -0.267971 -5.04996
upperback -7.02649 -1.31715 -1.4158
thorax -11.7139 -0.345734 1.53897
lowerneck -13.4618 -9.7503 -4.53227
upperneck 24.7562 -12.8769 -1.32043
head 10.3346 -6.68994 -1.41774
rclavicle 2.18663e-015 -7.95139e-016
rhumerus -12.065 14.4358 -22.8298
rradius 115.072
rwrist -101.749
rhand 1.68551 -4.19909
rfingers 7.12502
rthumb 27.2038 -32.2577
lclavicle 2.18663e-015 -7.95139e-016
lhumerus 5.06939 -38.8959 1.72169
lradius 119.541
lwrist 53.2555
lhand -10.3443 20.1643
lfingers 7.12502
lthumb 15.6521 -1030.45
rfemur -46.2684 -22.2451 15.7041
rtibia 87.4038
rfoot -22.2882 -14.7001
rtoes 7.20562
lfemur -21.4154 28.0255 -18.8496
ltibia 52.5693
lfoot -22.0775 14.1602
ltoes -1.70728
1380
root 1.67589 14.6654 -1.74938 192.722 -82.2269 -188.558
lowerback 7.30205 -0.46864 -4.9496
upperback -7.02834 -1.55703 -1.33193
thorax -11.6253 -0.466232 1.61276
lowerneck -13.4099 -9.81811 -4.60288
upperneck 24.904 -13.0091 -1.19816
head 10.3956 -6.74534 -1.38788
rclavicle -1.2424e-014 -3.97569e-015
rhumerus -12.6871 14.5992 -21.8661
rradius 114.187
rwrist -101.719
rhand 1.25563 -4.30512
rfingers 7.12502
rthumb 26.7925 -32.4275
lclavicle -1.2424e-014 -3.97569e-015
lhumerus 5.58794 -38.6773 1.32469
lradius 119.963
lwrist 53.6597
lhand -9.76089 20.2458
lfingers 7.12502
lthumb 16.2139 -1030.41
rfemur -45.5163 -21.9958 14.9022
rtibia 87.7529
rfoot -22.3761 -14.1178
rtoes 6.65456
lfemur -20.8573 27.3695 -18.1946
ltibia 51.4284
lfoot -21.3629 13.9124
ltoes -1.67376
1381
root 1.65077 14.7308 -1.84049 191.36 -83.0233 -187.094
lowerback 7.15901 -0.66685 -4.8185
upperback -7.03603 -1.78723 -1.23172
thorax -11.5299 -0.584149 1.68377
lowerneck -13.3294 -9.91359 -4.69745
upperneck 25.0059 -13.1825 -1.04252
head 10.4401 -6.8179 -1.34507
rclavicle -5.86415e-015 -5.56597e-015
rhumerus -13.3442 14.9428 -20.9321
rradius 113.174
rwrist -101.567
rhand 0.785618 -4.3902
rfingers 7.12502
rthumb 26.3426 -32.5807
lclavicle -5.86415e-015 -5.56597e-015
lhumerus 6.1034 -38.5014 0.956827
lradius 120.396
lwrist 53.952
lhand -9.31495 20.2361
lfingers 7.12502
lthumb 16.6432 -1030.46
rfemur -44.7141 -21.6474 14.2115
rtibia 87.7412
rfoot -22.4547 -13.6328
rtoes 6.225
lfemur -20.337 26.7266 -17.4806
ltibia 50.2708
lfoot -20.6198 13.6405
ltoes -1.6239
1382
root 1.62475 14.8017 -1.93488 189.325 -83.81 -184.939
lowerback 6.99822 -0.861488 -4.68283
upperback -7.04414 -2.01032 -1.11916
thorax -11.4245 -0.698867 1.76263
lowerneck -13.2271 -10.0379 -4.80685
upperneck 25.0568 -13.3984 -0.858589
head 10.4666 -6.90788 -1.29277
rclavicle 3.18055e-015 -7.95139e-016
rhumerus -14.0268 15.4436 -20.053
rradius 112.042
rwrist -101.307
rhand 0.320791 -4.42562
rfingers 7.12502
rthumb 25.8976 -32.6819
lclavicle 3.18055e-015 -7.95139e-016
lhumerus 6.59741 -38.3622 0.622106
lradius 120.834
lwrist 54.0645
lhand -8.9634 20.1298
lfingers 7.12502
lthumb 16.9817 -1030.59
rfemur -43.8215 -21.1952 13.6272
rtibia 87.31
rfoot -22.5175 -13.2963
rtoes 5.98029
lfemur -19.8254 26.1019 -16.7259
ltibia 49.086
lfoot -19.8491 13.358
ltoes -1.58583
